<svg width="475" height="272" viewBox="0 0 475 272" fill="none" xmlns="http://www.w3.org/2000/svg">
<g clip-path="url(#clip0_324_492)">
<path d="M23.0166 244.265L30.4077 258.272H15.3805L23.0166 244.265ZM19.4151 237.601L0 272H7.97802L11.9727 264.462H33.7242L37.8557 272H46.831L27.1424 237.601H19.4094H19.4151Z" fill="#324CDB"/>
<mask id="mask0_324_492" style="mask-type:luminance" maskUnits="userSpaceOnUse" x="0" y="0" width="475" height="272">
<path d="M475 0H0V272H475V0Z" fill="white"/>
</mask>
<g mask="url(#mask0_324_492)">
<path d="M75.7399 237.601H67.7448V263.874C67.7448 266.998 68.3431 269.145 69.4657 270.281C70.6681 271.4 72.9248 272 76.2584 272H97.9587C101.287 272 103.543 271.4 104.751 270.281C105.874 269.145 106.467 266.998 106.467 263.874V237.601H98.4772V265.525H75.7399V237.601Z" fill="#324CDB"/>
<path d="M135.353 272H155.378C158.848 272 161.709 271.8 163.903 271.338C166.159 270.938 167.971 270.275 169.493 269.333C171.892 267.866 173.75 265.804 175.089 263.275C176.417 260.665 177.078 257.793 177.078 254.601C177.078 249.136 175.363 245.007 171.949 241.998C168.564 239.063 163.766 237.607 157.452 237.607H135.353V250.803H128.97V257.13H135.353V272ZM143.342 265.53V257.125H156.113V250.798H143.342V243.728H157.509C161.236 243.728 164.039 244.659 165.948 246.458C167.829 248.256 168.826 250.935 168.826 254.469C168.826 258.404 167.698 261.265 165.367 262.926C163.105 264.674 159.179 265.53 153.645 265.53H143.342Z" fill="#324CDB"/>
</g>
<path d="M230.109 237.601L211.087 251.94V237.601H203.046V272H211.087V256.868L231.659 272H244.492L218.945 253.801L241.7 237.601H230.109Z" fill="#324CDB"/>
<path d="M267.184 237.601V272H302.652V265.53H275.162V257.005H291.01V251.135H275.162V243.466H302.31V237.601H267.184Z" fill="#324CDB"/>
<mask id="mask1_324_492" style="mask-type:luminance" maskUnits="userSpaceOnUse" x="0" y="0" width="475" height="272">
<path d="M475 0H0V272H475V0Z" fill="white"/>
</mask>
<g mask="url(#mask1_324_492)">
<path d="M328.649 272H335.829V253.396C335.829 252.733 335.772 251.86 335.772 250.935C335.687 249.992 335.641 248.993 335.493 247.931C335.909 248.388 336.314 248.856 336.764 249.262C337.237 249.736 337.761 250.204 338.359 250.729L363.593 272H369.029V237.601H361.843V255.669C361.843 256.068 361.843 256.725 361.917 257.536C361.974 258.33 362.054 259.66 362.185 261.596C361.649 260.996 361.051 260.397 360.436 259.803C359.78 259.203 359.045 258.541 358.247 257.867L334.085 237.601H328.626V272H328.649Z" fill="#324CDB"/>
<path d="M397.813 272H404.999V253.396C404.999 252.733 404.919 251.86 404.919 250.935C404.85 249.992 404.788 248.993 404.651 247.931C405.044 248.388 405.46 248.856 405.922 249.262C406.372 249.736 406.908 250.204 407.506 250.729L432.722 272H438.181V237.601H431.007V255.669C431.007 256.068 431.007 256.725 431.053 257.536C431.138 258.33 431.195 259.66 431.349 261.596C430.796 260.996 430.203 260.397 429.605 259.803C428.95 259.203 428.209 258.541 427.405 257.867L403.243 237.601H397.807L397.813 272Z" fill="#324CDB"/>
</g>
<path d="M475 237.601H467.005V272H475V237.601Z" fill="#324CDB"/>
<mask id="mask2_324_492" style="mask-type:luminance" maskUnits="userSpaceOnUse" x="0" y="0" width="475" height="272">
<path d="M475 0H0V272H475V0Z" fill="white"/>
</mask>
<g mask="url(#mask2_324_492)">
<path d="M237.608 139.537C231.596 139.537 226.707 134.638 226.707 128.614C226.707 122.589 231.596 117.695 237.608 117.695C243.62 117.695 248.51 122.578 248.51 128.614C248.51 134.649 243.626 139.537 237.608 139.537ZM237.608 110.238C227.493 110.238 219.265 118.478 219.265 128.614C219.265 138.749 227.493 147.001 237.608 147.001C247.723 147.001 255.969 138.738 255.969 128.614C255.969 118.489 247.723 110.238 237.608 110.238Z" fill="#324CDB"/>
<path d="M237.608 7.4633C248.134 7.4633 258.345 8.82807 268.09 11.3692C261.673 5.9158 254.522 2.10131 246.897 0.376786C243.825 0.159794 240.731 0.00561523 237.608 0.00561523C234.372 0.00561523 231.175 0.165504 228 0.399628C220.37 2.14128 213.218 5.97862 206.802 11.4662C216.643 8.86804 226.969 7.4633 237.608 7.4633Z" fill="#324CDB"/>
<path d="M237.608 20.1745C254.157 20.1745 269.84 23.9262 283.869 30.613C281.459 26.4901 278.803 22.6984 275.931 19.2837C263.93 15.0409 251.034 12.7168 237.608 12.7168C224.063 12.7168 211.064 15.0809 198.978 19.3865C196.106 22.8184 193.456 26.6214 191.045 30.75C205.166 23.9776 220.957 20.1745 237.608 20.1745Z" fill="#324CDB"/>
<path d="M176.873 99.8049C187.666 77.0493 210.825 61.2774 237.603 61.2774C264.226 61.2774 287.283 76.8666 298.156 99.4052C298.429 95.9505 298.595 92.45 298.595 88.8925C298.595 87.739 298.56 86.597 298.538 85.4549C284.998 66.331 262.739 53.814 237.614 53.814C212.341 53.814 189.985 66.468 176.468 85.7747C176.445 86.8082 176.411 87.8418 176.411 88.8811C176.405 92.5814 176.571 96.2189 176.873 99.8049Z" fill="#324CDB"/>
<path d="M179.158 62.2197C178.303 66.2683 177.636 70.4311 177.175 74.6967C192.014 58.0169 213.6 47.487 237.608 47.487C261.48 47.487 282.952 57.8912 297.785 74.3998C297.318 70.1513 296.646 65.9999 295.785 61.9741C280.228 48.3207 259.878 40.0122 237.614 40.0122C215.219 40.0122 194.761 48.4178 179.158 62.2197Z" fill="#324CDB"/>
<path d="M186.406 39.8124C184.731 43.5583 183.244 47.4985 181.956 51.6099C197.604 40.2178 216.831 33.4796 237.614 33.4796C258.271 33.4796 277.396 40.1436 292.987 51.41C291.699 47.31 290.2 43.3813 288.525 39.6525C273.515 30.9899 256.146 26.0105 237.614 26.0105C218.962 26.0105 201.473 31.047 186.406 39.8124Z" fill="#324CDB"/>
<path d="M237.608 67.7644C209.321 67.7644 185.489 87.2423 178.77 113.521C180.155 120.608 182.115 127.329 184.572 133.576C184.418 131.937 184.338 130.281 184.338 128.614C184.338 99.1598 208.243 75.2107 237.608 75.2107C266.973 75.2107 290.896 99.1598 290.896 128.614C290.896 130.041 290.822 131.44 290.708 132.839C293.09 126.655 294.982 120.025 296.315 113.042C289.448 87.0082 265.737 67.7644 237.608 67.7644Z" fill="#324CDB"/>
<path d="M237.608 153.619C223.846 153.619 212.654 142.41 212.654 128.619C212.654 114.829 223.852 103.597 237.608 103.597C251.365 103.597 262.574 114.84 262.574 128.619C262.574 142.398 251.382 153.619 237.608 153.619ZM237.608 96.1389C219.743 96.1389 205.2 110.712 205.2 128.619C205.2 146.527 219.743 161.088 237.608 161.088C255.473 161.088 270.016 146.533 270.016 128.619C270.016 110.706 255.485 96.1389 237.608 96.1389Z" fill="#324CDB"/>
<path d="M237.608 167.547C216.187 167.547 198.772 150.079 198.772 128.625C198.772 107.171 216.187 89.7092 237.608 89.7092C259.029 89.7092 276.45 107.171 276.45 128.625C276.45 150.079 259.029 167.547 237.608 167.547ZM237.608 82.2344C212.101 82.2344 191.336 103.049 191.336 128.614C191.336 154.179 212.101 175.004 237.608 175.004C263.115 175.004 283.892 154.19 283.892 128.614C283.892 103.037 263.138 82.2344 237.608 82.2344Z" fill="#324CDB"/>
</g>
</g>
<defs>
<clipPath id="clip0_324_492">
<rect width="475" height="272" fill="white"/>
</clipPath>
</defs>
</svg>
